<?xml version="1.0" encoding="UTF-8" standalone="no"?>
<!-- Created with Inkscape (http://www.inkscape.org/) -->

<svg
   xmlns:dc="http://purl.org/dc/elements/1.1/"
   xmlns:cc="http://creativecommons.org/ns#"
   xmlns:rdf="http://www.w3.org/1999/02/22-rdf-syntax-ns#"
   xmlns:svg="http://www.w3.org/2000/svg"
   xmlns="http://www.w3.org/2000/svg"
   xmlns:sodipodi="http://sodipodi.sourceforge.net/DTD/sodipodi-0.dtd"
   xmlns:inkscape="http://www.inkscape.org/namespaces/inkscape"
   width="58.137779mm"
   height="72.248886mm"
   viewBox="0 0 206.00001 255.99999"
   id="svg2"
   version="1.1"
   inkscape:version="0.91 r13725"
   sodipodi:docname="drawing.svg">
  <defs
     id="defs4" />
  <sodipodi:namedview
     id="base"
     pagecolor="#ffffff"
     bordercolor="#666666"
     borderopacity="1.0"
     inkscape:pageopacity="0.0"
     inkscape:pageshadow="2"
     inkscape:zoom="0.9899495"
     inkscape:cx="26.067632"
     inkscape:cy="119.39012"
     inkscape:document-units="px"
     inkscape:current-layer="layer1"
     showgrid="false"
     fit-margin-top="0"
     fit-margin-left="0"
     fit-margin-right="0"
     fit-margin-bottom="0"
     inkscape:window-width="1436"
     inkscape:window-height="855"
     inkscape:window-x="4"
     inkscape:window-y="1"
     inkscape:window-maximized="1" />
  <metadata
     id="metadata7">
    <rdf:RDF>
      <cc:Work
         rdf:about="">
        <dc:format>image/svg+xml</dc:format>
        <dc:type
           rdf:resource="http://purl.org/dc/dcmitype/StillImage" />
        <dc:title />
      </cc:Work>
    </rdf:RDF>
  </metadata>
  <g
     inkscape:label="Layer 1"
     inkscape:groupmode="layer"
     id="layer1"
     transform="translate(-215.52938,-705.99681)">
    <path
       style="fill:#e33022;fill-opacity:1"
       d="m 215.52938,849.51147 0,-112.10652 61.63643,-0.40307 -0.13642,-18.95093 5.9687,-6.02707 5.96869,-6.02707 30.06261,0 30.06261,0 5.68193,5.75 5.68194,5.75 0.19471,19 60.87881,0.0874 0,112.92727 0,112.48534 -103,0 -103.00001,0 z m 133.07506,-131.2468 -59.07505,0.26786 0.17662,18.31773 58.95473,-0.35345 z"
       id="path4147"
       inkscape:connector-curvature="0"
       sodipodi:nodetypes="cccccccccccccccccccccc" />
    <g
       id="g5645">
      <g
         transform="translate(-0.04204079,-25.539797)"
         id="g4299">
        <g
           transform="matrix(1.0357014,0,0,0.96552927,24.207506,359.59295)"
           style="font-style:normal;font-weight:normal;font-size:78.98725128px;line-height:125%;font-family:sans-serif;letter-spacing:0px;word-spacing:0px;fill:#ffffff;fill-opacity:1;stroke:none;stroke-width:1px;stroke-linecap:butt;stroke-linejoin:miter;stroke-opacity:1"
           id="text4149">
          <path
             d="m 207.68809,441.33687 10.28103,0 19.54696,39.71515 19.26818,-39.71515 9.43338,0 0,56.39689 -11.98572,0 0,-31.50044 c 0,0 -13.42063,26.31559 -15.28379,31.50044 l -7.44244,0 -13.91531,-30.5757 -0.15798,30.5757 -9.74431,0 z"
             style="font-style:normal;font-variant:normal;font-weight:500;font-stretch:normal;font-family:'Helvetica Neue';-inkscape-font-specification:'Helvetica Neue Medium';fill:#ffffff"
             id="path4154"
             inkscape:connector-curvature="0"
             sodipodi:nodetypes="cccccccccccccc" />
        </g>
        <path
           inkscape:connector-curvature="0"
           style="opacity:1;fill:#ffffff;fill-opacity:1;fill-rule:nonzero;stroke:none;stroke-width:100;stroke-linecap:round;stroke-linejoin:miter;stroke-miterlimit:4;stroke-dasharray:none;stroke-dashoffset:0;stroke-opacity:1"
           d="m 310.01107,785.70516 11.57672,0 0,54.375 -11.57672,0 z"
           id="rect4160" />
        <path
           inkscape:connector-curvature="0"
           style="opacity:1;fill:#ffffff;fill-opacity:1;fill-rule:nonzero;stroke:none;stroke-width:100;stroke-linecap:round;stroke-linejoin:miter;stroke-miterlimit:4;stroke-dasharray:none;stroke-dashoffset:0;stroke-opacity:1"
           d="m 385.11557,785.57123 11.57672,0 0,54.375 -11.57672,0 z"
           id="rect4160-7" />
        <g
           transform="translate(24.207506,359.59295)"
           style="font-style:normal;font-weight:normal;font-size:75.76533508px;line-height:125%;font-family:sans-serif;letter-spacing:0px;word-spacing:0px;fill:#ffffff;fill-opacity:1;stroke:none;stroke-width:1px;stroke-linecap:butt;stroke-linejoin:miter;stroke-opacity:1"
           id="text4178">
          <path
             d="m 307.40101,425.66563 7.09684,0 26.46726,31.64509 0.15154,-31.64509 10.5313,0 0,54.7278 -6.97056,0 -27.27539,-31.82185 -0.22729,31.82185 -9.7737,0 z"
             style="font-style:normal;font-variant:normal;font-weight:500;font-stretch:normal;font-family:'Helvetica Neue';-inkscape-font-specification:'Helvetica Neue Medium';fill:#ffffff"
             id="path4183"
             inkscape:connector-curvature="0"
             sodipodi:nodetypes="ccccccccccc" />
        </g>
        <g
           transform="matrix(1.0322802,0,0,0.96872921,24.207506,359.59295)"
           style="font-style:normal;font-weight:normal;font-size:81.12693024px;line-height:125%;font-family:sans-serif;letter-spacing:0px;word-spacing:0px;fill:#ffffff;fill-opacity:1;stroke:none;stroke-width:1px;stroke-linecap:butt;stroke-linejoin:miter;stroke-opacity:1"
           id="text4199">
          <path
             d="m 246.37571,561.73509 c 0,5.22889 -1.88821,9.34861 -5.66462,12.35918 -3.75001,3.01057 -8.97889,4.51586 -15.68665,4.51586 -6.17959,0 -11.15688,0.0111 -15.91041,-2.31282 l 1.37611,-9.09485 c 3.90846,1.74296 6.9343,1.83044 9.62797,2.54347 1.89441,0.41975 4.07101,0.15713 6.31573,0.15713 2.69367,0 5.51804,-1.8836 6.9441,-2.91353 1.45247,-1.02993 1.38361,-3.73473 1.38361,-5.76818 0,-1.13557 -0.59212,-1.84582 -1.22592,-2.7173 -0.51149,-0.47427 -1.72421,-0.9415 -2.96541,-1.76017 -1.21479,-0.81866 -3.7104,-2.12588 -7.48681,-3.92166 -3.53874,-1.66373 -6.19279,-3.26145 -7.96216,-4.79314 -1.76937,-1.53169 -3.18223,-3.31427 -4.23857,-5.34773 -1.05634,-2.03345 -1.58451,-4.41022 -1.58451,-7.13029 0,-5.12325 1.72976,-9.15055 5.18927,-12.08189 3.48593,-2.93135 8.29228,-4.12052 14.41905,-4.12052 3.01057,0 4.40263,-0.0365 8.50947,0.28612 3.18103,0.32259 2.95825,0.23995 6.0444,1.12113 l -0.97724,8.625 c -3.16833,-0.90464 -5.1723,-0.9103 -7.68488,-1.31763 -2.20218,-0.20738 -5.65268,-0.22268 -7.71503,-0.0153 -2.31366,0.23265 -4.06327,0.91004 -5.30447,1.99279 -1.2412,1.08275 -1.34284,3.41729 -1.34284,5.16025 0,1.08275 0.73644,1.93517 1.3581,3.08255 0.60904,0.96164 1.55349,1.29479 2.63624,2.06064 1.10916,0.73944 3.7104,2.08627 7.80372,4.0405 5.41374,2.58803 9.12413,5.18927 11.13118,7.80372 2.00705,2.58803 3.01057,5.77026 3.01057,9.54667 z"
             style="font-style:normal;font-variant:normal;font-weight:bold;font-stretch:normal;font-family:'Open Sans';-inkscape-font-specification:'Open Sans Bold';fill:#ffffff"
             id="path4204"
             inkscape:connector-curvature="0"
             sodipodi:nodetypes="scscccscscccssscsccccsssccccs" />
        </g>
        <path
           style="opacity:1;fill:#ffffff;fill-opacity:1;fill-rule:nonzero;stroke:none;stroke-width:100;stroke-linecap:round;stroke-linejoin:miter;stroke-miterlimit:4;stroke-dasharray:none;stroke-dashoffset:0;stroke-opacity:1"
           d="m 306.73485,862.30652 c -14.81641,0.12627 -23.16992,11.47261 -23.16992,29.29297 0,18.45171 10.37328,29.29492 23.16992,29.29492 12.79664,0 22.9305,-11.6026 23.16993,-29.29492 0.23091,-17.06305 -8.35298,-29.41924 -23.16993,-29.29297 z m 0.002,7.76368 a 11.553619,21.528875 0 0 1 11.55273,21.52929 11.553619,21.528875 0 0 1 -11.55273,21.5293 11.553619,21.528875 0 0 1 -11.55274,-21.5293 11.553619,21.528875 0 0 1 11.55274,-21.52929 z"
           id="path4212"
           inkscape:connector-curvature="0" />
        <path
           inkscape:connector-curvature="0"
           style="opacity:1;fill:#ffffff;fill-opacity:1;fill-rule:nonzero;stroke:none;stroke-width:100;stroke-linecap:round;stroke-linejoin:miter;stroke-miterlimit:4;stroke-dasharray:none;stroke-dashoffset:0;stroke-opacity:1"
           d="m 352.06514,868.30367 a 7.5761442,7.5761442 0 0 1 -7.57615,7.57615 7.5761442,7.5761442 0 0 1 -7.57613,-7.57615 7.5761442,7.5761442 0 0 1 7.57613,-7.57614 7.5761442,7.5761442 0 0 1 7.57615,7.57614 z"
           id="path4219" />
        <path
           inkscape:connector-curvature="0"
           style="opacity:1;fill:#ffffff;fill-opacity:1;fill-rule:nonzero;stroke:none;stroke-width:100;stroke-linecap:round;stroke-linejoin:miter;stroke-miterlimit:4;stroke-dasharray:none;stroke-dashoffset:0;stroke-opacity:1"
           d="m 368.31465,862.71142 28.125,0 0,9.57738 -28.125,0 z"
           id="rect4222" />
        <path
           style="fill:none;fill-rule:evenodd;stroke:#ffffff;stroke-width:8.5;stroke-linecap:butt;stroke-linejoin:miter;stroke-miterlimit:4;stroke-dasharray:none;stroke-opacity:1"
           d="m 341.88607,887.13372 c 0,18.18746 12.09517,28.94191 24.99971,28.94191 14.75727,0 26.69672,-11.9844 26.69672,-28.76334"
           id="path4225"
           inkscape:connector-curvature="0"
           sodipodi:nodetypes="csc" />
      </g>
      <g
         transform="matrix(0.94706113,0,0,0.94706113,17.246042,36.718859)"
         id="g5639">
        <path
           sodipodi:nodetypes="ccccccccccccccccccccccccccccc"
           inkscape:connector-curvature="0"
           id="path4303"
           style="font-style:normal;font-variant:normal;font-weight:600;font-stretch:normal;font-size:medium;line-height:125%;font-family:'PingFang HK';-inkscape-font-specification:'PingFang HK Semi-Bold';letter-spacing:0px;word-spacing:0px;fill:#ffffff;fill-opacity:1;stroke:none;stroke-width:1px;stroke-linecap:butt;stroke-linejoin:miter;stroke-opacity:1"
           d="m 265.89458,955.89051 1.66458,0.62154 3.81268,-0.62154 0,-17.5591 -15.54474,0 c 6.78774,-3.30477 11.52239,-7.40587 14.12016,-12.34312 l 0,-3.66312 -15.41904,0 c 0.67039,-0.91578 1.0498,-2.97106 1.5526,-3.92665 l -4.81845,-0.55744 c -2.47208,4.06129 -5.59118,7.93969 -12.31953,11.76275 l 2.93296,3.62331 c 4.35755,-1.99083 6.15799,-3.80619 9.00716,-6.27482 l 10.97053,0 c -1.75978,2.70753 -3.34376,4.4112 -6.98902,6.52148 -1.71788,-1.35376 -2.01224,-2.86679 -4.77761,-4.53909 l -3.81286,2.22973 c 2.72347,1.47321 2.70706,3.59192 4.46684,4.94568 -4.60895,1.99083 -8.69174,4.82658 -15.60517,6.02108 l 2.26257,3.98165 c 2.51398,-0.55743 4.4262,-1.40167 6.68877,-2.03874 l 0,11.8164 5.53896,0 z m 0.99516,-4.99319 -18.9715,0 0,-7.96815 18.9715,0 z" />
        <path
           sodipodi:nodetypes="ccsccccccccccccccccccccccccccccccccccccccccccccccccssccssccs"
           inkscape:connector-curvature="0"
           id="path4305"
           style="font-style:normal;font-variant:normal;font-weight:600;font-stretch:normal;font-size:medium;line-height:125%;font-family:'PingFang HK';-inkscape-font-specification:'PingFang HK Semi-Bold';letter-spacing:0px;word-spacing:0px;fill:#ffffff;fill-opacity:1;stroke:none;stroke-width:1px;stroke-linecap:butt;stroke-linejoin:miter;stroke-opacity:1"
           d="m 288.88587,918.01621 c -3.10057,3.26496 -7.03913,7.49428 -11.77378,10.28144 l 2.55587,3.3844 c 0.38027,0.50354 1.0894,-0.67688 1.63408,-1.03523 l 0,6.43375 c -0.0419,6.13175 -0.44046,11.57497 -3.16394,15.47699 l 3.43577,2.90661 c 1.84357,-2.86679 3.71221,-6.55809 4.5502,-10.14158 l 0,9.59579 2.3847,0 7.37432,-0.0398 4.06427,0 0,-11.26807 -14.16143,0 c 0.0838,-0.7167 -0.0495,-1.39358 0.0343,-2.11028 l 13.70812,0 0,-11.98478 -17.93302,0 c 1.50838,-1.03523 2.93297,-1.13814 4.27375,-2.17338 l 0,1.4334 9.8883,0 0,-2.26955 c 1.17319,0.83615 2.47208,1.83157 3.93856,2.94643 l 2.51398,-3.22514 c -3.85477,-2.78716 -7.41623,-6.33961 -10.68439,-8.21098 z m -1.08939,7.73318 c 1.00559,-0.91578 1.96928,-1.83156 2.80727,-2.74734 1.13129,0.67688 2.51397,1.59266 4.10616,2.74734 z m -2.30448,11.13209 9.88831,0 0,1.6723 -9.93021,0 c 0,-0.4778 0.0419,-0.99541 0.0419,-1.47321 z m 9.88831,-2.70752 -9.88831,0 0,-1.67229 9.88831,0 z m -6.1464,16.16552 0,-3.54367 7.37432,0 0,3.54367 z m 14.10732,-29.82293 0,26.85322 4.18995,0 0,-26.85322 z m 7.24861,35.05543 c 2.84918,0 4.27376,-1.39358 4.27376,-4.14092 l 0,-33.78939 -4.35755,0 0,32.75416 c 0,0.91578 -0.5028,1.39358 -1.42458,1.39358 -1.80169,0 -0.72494,-0.0796 -2.73612,-0.2389 l 1.00559,4.02147 z" />
        <path
           sodipodi:nodetypes="cccccccccccccccccccccccccccccccsssccsccccccccccccccccsccccccccccccccccccccccccccccccccccccc"
           inkscape:connector-curvature="0"
           id="path4307"
           style="font-style:normal;font-variant:normal;font-weight:600;font-stretch:normal;font-size:medium;line-height:125%;font-family:'PingFang HK';-inkscape-font-specification:'PingFang HK Semi-Bold';letter-spacing:0px;word-spacing:0px;fill:#ffffff;fill-opacity:1;stroke:none;stroke-width:1px;stroke-linecap:butt;stroke-linejoin:miter;stroke-opacity:1"
           d="m 356.57009,923.30405 -9.2598,0 c 0.1257,-0.35835 0.2514,-1.33824 0.33519,-1.69659 l 11.39669,0 0,-3.18532 -25.34924,0 0,3.18532 9.6369,0 c -0.1257,0.31853 -0.2514,1.29842 -0.37709,1.69659 l -6.99723,0 0,10.65564 -3.31007,0 0,5.01689 3.85476,0 c -1.08939,1.03523 -2.34638,1.95101 -3.72906,2.78716 l 2.13688,2.62789 c 1.96928,-1.31395 3.64526,-2.82697 4.98605,-4.5789 l -2.34638,-1.95101 c -0.2933,0.27871 -0.5866,0.59724 -0.87989,0.95559 l 0,-2.11028 9.8045,0 -1.92738,0.59725 c 0.87989,0.79633 1.71788,1.75193 2.47206,2.82698 l 2.63968,-1.1945 c -0.58659,-0.79633 -1.29888,-1.51303 -2.13687,-2.22973 l 8.42181,0 0,1.95102 c -0.41899,-0.35835 -0.87989,-0.7167 -1.34079,-1.03524 l -1.88548,1.71212 -2.34637,-0.7167 c -0.0838,1.03523 -0.2933,1.63248 -0.5866,1.83156 -0.25139,0.15927 -0.5866,0.27872 -1.08939,0.27872 l -4.18995,0 c -0.5028,0 -0.71229,-0.2389 -0.71229,-0.63706 l 0,-2.58808 -3.68717,0 0,3.30477 c 0,0.7167 0.2095,1.31395 0.6704,1.79175 -0.87989,0.91578 -1.80169,1.75192 -2.72348,2.46862 -1.75978,1.27413 -3.64526,2.26954 -5.57264,2.98624 l 2.01118,3.02606 c 1.59218,-0.87597 2.97487,-1.6723 4.14806,-2.46863 1.04749,0.87597 2.17877,1.71211 3.39386,2.50844 -2.84917,0.75652 -6.24303,1.39358 -10.13969,1.9112 l 1.46648,3.34459 c 5.02795,-0.79634 9.30171,-1.83156 12.77937,-3.10569 3.93856,1.71211 8.46371,2.70752 13.53356,2.98624 l 0.96369,-3.42423 c -3.77096,-0.15926 -7.16483,-0.63706 -10.22349,-1.51302 2.05308,-1.1945 3.60336,-2.54826 4.69275,-4.06129 l 0,-2.70752 -11.77378,0 c 0.2933,-0.35835 0.62849,-0.7167 0.96369,-1.11487 l 5.02795,0 c 1.34078,0 2.30448,-0.19908 2.97487,-0.51761 0.54469,-0.31853 0.96369,-1.11486 1.25698,-2.42881 1.42459,1.27413 2.59777,2.46863 3.47766,3.66312 l 2.43019,-2.30936 c -0.87989,-0.95559 -1.92738,-1.9112 -3.14248,-2.86679 l 3.64527,0 0,-5.01689 -3.39387,0 z m -16.67602,9.82692 0,-0.99541 12.73746,0 0,0.99541 z m 0,-3.37664 0,-0.91579 12.73746,0 0,0.91579 z m 0,-3.02606 0,-0.99542 12.73746,0 0,0.99542 z m 6.20113,23.03859 c -1.46649,-0.67688 -2.84917,-1.47321 -4.14806,-2.34917 l 8.46372,0 c -1.13129,0.83614 -2.55588,1.63247 -4.31566,2.34917 z m -16.75983,-30.65873 c -1.71788,6.05211 -4.31566,11.26807 -7.79332,15.68771 l 1.42459,4.34 c 0.96368,-1.11486 1.88548,-2.26954 2.76537,-3.42422 l 0,20.54534 4.14806,0 0,-27.1947 c 1.34079,-2.62789 2.43017,-5.37523 3.26816,-8.2022 z" />
        <path
           sodipodi:nodetypes="cccccccccccccccccccccccccccccccccc"
           inkscape:connector-curvature="0"
           id="path4309"
           style="font-style:normal;font-variant:normal;font-weight:600;font-stretch:normal;font-size:medium;line-height:125%;font-family:'PingFang HK';-inkscape-font-specification:'PingFang HK Semi-Bold';letter-spacing:0px;word-spacing:0px;fill:#ffffff;fill-opacity:1;stroke:none;stroke-width:1px;stroke-linecap:butt;stroke-linejoin:miter;stroke-opacity:1"
           d="m 372.39192,919.33826 0,15.2504 24.09225,0 0,-15.2504 z m 18.65689,11.34838 -13.63589,0 0,-7.032 13.63589,0 z m -8.5172,6.52991 -15.79613,0 0,18.15634 4.27375,0 7.29053,0 4.23185,0 z m -11.52238,12.42276 0,-7.07047 7.29053,0 0,7.07047 z m 31.08949,-12.42276 -16.29894,0 0,18.15634 4.27376,0 7.66762,0 4.35756,0 z m -12.02518,12.42276 0,-7.07047 7.66762,0 0,7.07047 z" />
      </g>
    </g>
  </g>
</svg>
